<?xml version="1.0" encoding="utf-8"?>
<!-- Generator: Adobe Illustrator 19.1.0, SVG Export Plug-In . SVG Version: 6.00 Build 0)  -->
<svg version="1.1" xmlns="http://www.w3.org/2000/svg" xmlns:xlink="http://www.w3.org/1999/xlink" x="0px" y="0px"
	 viewBox="0 0 64 55.7" style="enable-background:new 0 0 64 55.7;" xml:space="preserve">
<style type="text/css">
	.st0{display:none;}
	.st1{display:inline;}
	.st2{display:inline;fill:none;stroke:#000000;stroke-width:0.25;stroke-miterlimit:10;}
	.st3{fill:none;stroke:#000000;stroke-width:0.25;stroke-miterlimit:10;}
	.st4{fill:#2E3192;}
	.st5{fill:none;stroke:#2E3192;stroke-width:0.25;stroke-miterlimit:10;}
</style>
<g id="Layer_1" class="st0">
	<circle class="st1" cx="20.3" cy="30.1" r="0.8"/>
	<circle class="st1" cx="33.1" cy="17.3" r="0.8"/>
	<circle class="st1" cx="48.5" cy="14" r="0.8"/>
	<circle class="st1" cx="16.4" cy="10.7" r="0.8"/>
	<line class="st2" x1="48.5" y1="14" x2="33.1" y2="17.3"/>
	<line class="st2" x1="33.1" y1="17.3" x2="20.3" y2="30.1"/>
	<line class="st2" x1="33.1" y1="17.3" x2="16.4" y2="10.7"/>
	<line class="st2" x1="16.4" y1="10.7" x2="20.3" y2="30.1"/>
</g>
<g id="Layer_2">
	<g>
		<circle cx="20.3" cy="30.1" r="0.8"/>
		<circle cx="33.1" cy="17.3" r="0.8"/>
		<circle cx="48.5" cy="14" r="0.8"/>
		<circle cx="16.4" cy="10.7" r="0.8"/>
		<line class="st3" x1="48.5" y1="14" x2="33.1" y2="17.3"/>
		<line class="st3" x1="33.1" y1="17.3" x2="20.3" y2="30.1"/>
		<line class="st3" x1="33.1" y1="17.3" x2="16.4" y2="10.7"/>
		<line class="st3" x1="16.4" y1="10.7" x2="20.3" y2="30.1"/>
	</g>
	<circle class="st4" cx="40.5" cy="42.8" r="0.8"/>
	<circle class="st4" cx="51.1" cy="35.1" r="0.8"/>
	<circle class="st4" cx="22.3" cy="41.5" r="0.8"/>
	<circle class="st4" cx="34.4" cy="28.5" r="0.8"/>
	<line class="st5" x1="22.3" y1="41.5" x2="51.1" y2="35.1"/>
	<line class="st5" x1="51.1" y1="35.1" x2="40.5" y2="42.8"/>
	<line class="st5" x1="51.1" y1="35.1" x2="34.4" y2="28.5"/>
	<line class="st5" x1="34.4" y1="28.5" x2="40.5" y2="42.8"/>
	<g>
		<path d="M13.8,9.5l0-0.2h0c-0.1,0.1-0.2,0.2-0.4,0.2c-0.3,0-0.4-0.2-0.4-0.4c0-0.4,0.3-0.5,0.9-0.5v0c0-0.1,0-0.3-0.3-0.3
			c-0.1,0-0.3,0-0.4,0.1L13,8.1C13.1,8,13.2,8,13.4,8C13.9,8,14,8.3,14,8.6v0.5c0,0.1,0,0.2,0,0.3H13.8z M13.7,8.7
			c-0.3,0-0.6,0-0.6,0.3c0,0.2,0.1,0.3,0.2,0.3c0.2,0,0.3-0.1,0.4-0.2c0,0,0-0.1,0-0.1V8.7z"/>
	</g>
	<g>
		<path d="M38.5,43.6l0-0.2h0c-0.1,0.1-0.2,0.2-0.4,0.2c-0.3,0-0.4-0.2-0.4-0.4c0-0.4,0.3-0.5,0.9-0.5v0c0-0.1,0-0.3-0.3-0.3
			c-0.1,0-0.3,0-0.4,0.1l-0.1-0.2c0.1-0.1,0.3-0.1,0.5-0.1c0.4,0,0.6,0.3,0.6,0.6v0.5c0,0.1,0,0.2,0,0.3H38.5z M38.4,42.9
			c-0.3,0-0.6,0-0.6,0.3c0,0.2,0.1,0.3,0.2,0.3c0.2,0,0.3-0.1,0.4-0.2c0,0,0-0.1,0-0.1V42.9z"/>
	</g>
	<g>
		<path d="M16.6,30.9c0-0.1,0-0.2,0-0.4v-1.8h0.3v0.9h0c0.1-0.2,0.3-0.3,0.5-0.3c0.4,0,0.6,0.3,0.6,0.7c0,0.5-0.3,0.8-0.7,0.8
			c-0.2,0-0.4-0.1-0.5-0.3h0l0,0.2H16.6z M16.9,30.3C16.9,30.4,16.9,30.4,16.9,30.3c0.1,0.3,0.2,0.4,0.4,0.4c0.3,0,0.4-0.2,0.4-0.6
			c0-0.3-0.2-0.5-0.4-0.5c-0.2,0-0.3,0.1-0.4,0.3c0,0,0,0.1,0,0.1V30.3z"/>
	</g>
	<g>
		<path d="M31.6,29.2c0-0.1,0-0.2,0-0.4v-1.8h0.3V28h0c0.1-0.2,0.3-0.3,0.5-0.3c0.4,0,0.6,0.3,0.6,0.7c0,0.5-0.3,0.8-0.7,0.8
			c-0.2,0-0.4-0.1-0.5-0.3h0l0,0.2H31.6z M31.9,28.7C31.9,28.7,31.9,28.7,31.9,28.7c0.1,0.3,0.2,0.4,0.4,0.4c0.3,0,0.4-0.2,0.4-0.6
			c0-0.3-0.2-0.5-0.4-0.5c-0.2,0-0.3,0.1-0.4,0.3c0,0,0,0.1,0,0.1V28.7z"/>
	</g>
	<g>
		<path d="M33.2,15.5c-0.1,0-0.2,0.1-0.4,0.1c-0.4,0-0.7-0.3-0.7-0.7c0-0.4,0.3-0.8,0.8-0.8c0.2,0,0.3,0,0.4,0.1l-0.1,0.2
			c-0.1,0-0.2-0.1-0.3-0.1c-0.3,0-0.5,0.2-0.5,0.5c0,0.3,0.2,0.5,0.5,0.5c0.2,0,0.2,0,0.3-0.1L33.2,15.5z"/>
	</g>
	<g>
		<path d="M54.3,35.8c-0.1,0-0.2,0.1-0.4,0.1c-0.4,0-0.7-0.3-0.7-0.7c0-0.4,0.3-0.8,0.8-0.8c0.2,0,0.3,0,0.4,0.1l-0.1,0.2
			c-0.1,0-0.2-0.1-0.3-0.1c-0.3,0-0.5,0.2-0.5,0.5c0,0.3,0.2,0.5,0.5,0.5c0.2,0,0.2,0,0.3-0.1L54.3,35.8z"/>
	</g>
	<g>
		<path d="M49.9,10.2v1.8c0,0.1,0,0.3,0,0.4h-0.2l0-0.3h0c-0.1,0.2-0.3,0.3-0.5,0.3c-0.4,0-0.6-0.3-0.6-0.7c0-0.5,0.3-0.8,0.7-0.8
			c0.2,0,0.4,0.1,0.4,0.2h0v-0.9H49.9z M49.7,11.4c0,0,0-0.1,0-0.1c0-0.2-0.2-0.3-0.4-0.3c-0.3,0-0.4,0.2-0.4,0.6
			c0,0.3,0.1,0.5,0.4,0.5c0.2,0,0.3-0.1,0.4-0.3c0,0,0-0.1,0-0.1V11.4z"/>
	</g>
	<g>
		<path d="M19.7,40.1v1.8c0,0.1,0,0.3,0,0.4h-0.2l0-0.3h0c-0.1,0.2-0.3,0.3-0.5,0.3c-0.4,0-0.6-0.3-0.6-0.7c0-0.5,0.3-0.8,0.7-0.8
			c0.2,0,0.4,0.1,0.4,0.2h0v-0.9H19.7z M19.4,41.4c0,0,0-0.1,0-0.1c0-0.2-0.2-0.3-0.4-0.3c-0.3,0-0.4,0.2-0.4,0.6
			c0,0.3,0.1,0.5,0.4,0.5c0.2,0,0.3-0.1,0.4-0.3c0,0,0-0.1,0-0.1V41.4z"/>
	</g>
	<g>
	</g>
	<g>
	</g>
	<g>
	</g>
	<g>
	</g>
	<g>
	</g>
	<g>
	</g>
</g>
</svg>
