<?xml version="1.0" encoding="utf-8"?>
<!-- Generator: Adobe Illustrator 19.1.0, SVG Export Plug-In . SVG Version: 6.00 Build 0)  -->
<svg version="1.1" xmlns="http://www.w3.org/2000/svg" xmlns:xlink="http://www.w3.org/1999/xlink" x="0px" y="0px"
	 viewBox="0 0 640 480" style="enable-background:new 0 0 640 480;" xml:space="preserve">
<style type="text/css">
	.st0{fill:#231F20;}
	.st1{fill:none;stroke:#231F20;stroke-miterlimit:10;}
	.st2{fill:#2E3191;}
	.st3{fill:none;stroke:#2E3191;stroke-miterlimit:10;}
</style>
<g id="Layer_1">
	<circle class="st0" cx="199.2" cy="268.2" r="7.5"/>
	<circle class="st0" cx="316.3" cy="151.2" r="7.5"/>
	<circle class="st0" cx="455.9" cy="120.7" r="7.5"/>
	<circle class="st0" cx="163.6" cy="91" r="7.5"/>
	<line class="st1" x1="455.9" y1="120.7" x2="316.3" y2="151.2"/>
	<line class="st1" x1="316.3" y1="151.2" x2="199.2" y2="268.2"/>
	<line class="st1" x1="316.3" y1="151.2" x2="163.6" y2="91"/>
	<line class="st1" x1="163.6" y1="91" x2="199.2" y2="268.2"/>
	<g>
		<path class="st0" d="M139.5,79.5l-0.2-1.7h-0.1c-0.7,1-2.2,2-4.1,2c-2.7,0-4.1-1.9-4.1-3.8c0-3.2,2.9-5,8-4.9v-0.3
			c0-1.1-0.3-3.1-3-3.1c-1.2,0-2.5,0.4-3.5,1l-0.5-1.6c1.1-0.7,2.7-1.2,4.4-1.2c4.1,0,5,2.8,5,5.4v5c0,1.1,0.1,2.3,0.2,3.2H139.5z
			 M139.2,72.8c-2.6-0.1-5.6,0.4-5.6,3c0,1.6,1,2.3,2.3,2.3c1.7,0,2.8-1.1,3.2-2.2c0.1-0.2,0.1-0.5,0.1-0.8V72.8z"/>
	</g>
	<g>
		<path class="st0" d="M165.5,275.4c0.1-0.9,0.1-2.2,0.1-3.4v-16h2.4v8.3h0.1c0.9-1.5,2.4-2.4,4.5-2.4c3.3,0,5.6,2.7,5.6,6.8
			c0,4.7-3,7.1-5.9,7.1c-1.9,0-3.5-0.7-4.4-2.5h-0.1l-0.1,2.2H165.5z M168,270c0,0.3,0.1,0.6,0.1,0.9c0.5,1.7,1.9,2.8,3.6,2.8
			c2.5,0,4-2.1,4-5.1c0-2.7-1.4-4.9-3.9-4.9c-1.6,0-3.2,1.1-3.7,3c-0.1,0.3-0.1,0.6-0.1,1V270z"/>
	</g>
	<g>
		<path class="st0" d="M316.7,134.9c-0.6,0.3-2,0.8-3.8,0.8c-4,0-6.6-2.7-6.6-6.8c0-4.1,2.8-7,7.1-7c1.4,0,2.7,0.4,3.3,0.7l-0.5,1.9
			c-0.6-0.3-1.5-0.6-2.8-0.6c-3,0-4.7,2.2-4.7,5c0,3.1,2,5,4.6,5c1.4,0,2.3-0.4,3-0.7L316.7,134.9z"/>
	</g>
	<g>
		<path class="st0" d="M469.3,86.2v16c0,1.2,0,2.5,0.1,3.4h-2.2l-0.1-2.3h-0.1c-0.7,1.5-2.4,2.6-4.5,2.6c-3.2,0-5.7-2.7-5.7-6.7
			c0-4.4,2.7-7.1,5.9-7.1c2,0,3.4,1,4,2h0.1v-7.9H469.3z M466.9,97.8c0-0.3,0-0.7-0.1-1c-0.4-1.5-1.7-2.8-3.5-2.8
			c-2.5,0-4,2.2-4,5.1c0,2.7,1.3,4.9,3.9,4.9c1.6,0,3.1-1.1,3.5-2.9c0.1-0.3,0.1-0.7,0.1-1V97.8z"/>
	</g>
</g>
<g id="Layer_2">
	<circle class="st2" cx="383.1" cy="383.9" r="7.5"/>
	<circle class="st2" cx="480.2" cy="313.1" r="7.5"/>
	<circle class="st2" cx="217" cy="371.6" r="7.5"/>
	<circle class="st2" cx="327.5" cy="252.8" r="7.5"/>
	<line class="st3" x1="217" y1="371.6" x2="480.2" y2="313.1"/>
	<line class="st3" x1="480.2" y1="313.1" x2="383.1" y2="383.9"/>
	<line class="st3" x1="480.2" y1="313.1" x2="327.5" y2="252.8"/>
	<line class="st3" x1="327.5" y1="252.8" x2="383.1" y2="383.9"/>
	<g>
		<path class="st0" d="M364.7,391l-0.2-1.7h-0.1c-0.7,1-2.2,2-4.1,2c-2.7,0-4.1-1.9-4.1-3.8c0-3.2,2.9-5,8-4.9v-0.3
			c0-1.1-0.3-3.1-3-3.1c-1.2,0-2.5,0.4-3.5,1l-0.6-1.6c1.1-0.7,2.7-1.2,4.4-1.2c4.1,0,5,2.8,5,5.4v5c0,1.1,0.1,2.3,0.2,3.2H364.7z
			 M364.3,384.2c-2.6-0.1-5.6,0.4-5.6,3c0,1.6,1,2.3,2.3,2.3c1.7,0,2.8-1.1,3.2-2.2c0.1-0.2,0.1-0.5,0.1-0.8V384.2z"/>
	</g>
	<g>
		<path class="st0" d="M302.4,260c0.1-0.9,0.1-2.2,0.1-3.4v-16h2.4v8.3h0.1c0.9-1.5,2.4-2.4,4.5-2.4c3.3,0,5.6,2.7,5.6,6.8
			c0,4.7-3,7.1-5.9,7.1c-1.9,0-3.5-0.7-4.4-2.5h-0.1l-0.1,2.2H302.4z M304.9,254.6c0,0.3,0.1,0.6,0.1,0.9c0.5,1.7,1.9,2.8,3.6,2.8
			c2.5,0,4-2.1,4-5.1c0-2.7-1.4-4.9-3.9-4.9c-1.6,0-3.2,1.1-3.7,3c-0.1,0.3-0.1,0.6-0.1,1V254.6z"/>
	</g>
	<g>
		<path class="st0" d="M508.8,319.7c-0.6,0.3-2,0.8-3.8,0.8c-4,0-6.6-2.7-6.6-6.8c0-4.1,2.8-7,7.1-7c1.4,0,2.7,0.4,3.3,0.7l-0.5,1.9
			c-0.6-0.3-1.5-0.6-2.8-0.6c-3,0-4.7,2.2-4.7,5c0,3.1,2,5,4.6,5c1.4,0,2.3-0.4,3-0.7L508.8,319.7z"/>
	</g>
	<g>
		<path class="st0" d="M193.4,359.3v16c0,1.2,0,2.5,0.1,3.4h-2.2l-0.1-2.3h-0.1c-0.7,1.5-2.4,2.6-4.5,2.6c-3.2,0-5.7-2.7-5.7-6.7
			c0-4.4,2.7-7.1,5.9-7.1c2,0,3.4,1,4,2h0.1v-7.9H193.4z M191,370.9c0-0.3,0-0.7-0.1-1c-0.4-1.5-1.7-2.8-3.5-2.8c-2.5,0-4,2.2-4,5.1
			c0,2.7,1.3,4.9,3.9,4.9c1.6,0,3.1-1.1,3.5-2.9c0.1-0.3,0.1-0.7,0.1-1V370.9z"/>
	</g>
	<g>
	</g>
	<g>
	</g>
	<g>
	</g>
	<g>
	</g>
	<g>
	</g>
	<g>
	</g>
	<g>
	</g>
	<g>
	</g>
	<g>
	</g>
	<g>
	</g>
	<g>
	</g>
	<g>
	</g>
	<g>
	</g>
	<g>
	</g>
	<g>
	</g>
</g>
</svg>
