<?xml version="1.0" encoding="utf-8"?>
<!-- Generator: Adobe Illustrator 18.0.0, SVG Export Plug-In . SVG Version: 6.00 Build 0)  -->
<!DOCTYPE svg PUBLIC "-//W3C//DTD SVG 1.1//EN" "http://www.w3.org/Graphics/SVG/1.1/DTD/svg11.dtd">
<svg version="1.1" xmlns="http://www.w3.org/2000/svg" xmlns:xlink="http://www.w3.org/1999/xlink" x="0px" y="0px"
	 viewBox="0 0 1224 792" enable-background="new 0 0 1224 792" xml:space="preserve">
<g id="Layer_1" display="none">
	<g id="Layer_2" display="inline">
		<circle fill="#2E3191" cx="716.1" cy="633.4" r="12.4"/>
		<circle fill="#2E3191" cx="876.3" cy="516.6" r="12.4"/>
		<circle fill="#2E3191" cx="442" cy="613.1" r="12.4"/>
		<circle fill="#2E3191" cx="624.4" cy="417.1" r="12.4"/>
		<line fill="none" stroke="#2E3191" stroke-miterlimit="10" x1="442" y1="613.1" x2="876.3" y2="516.6"/>
		<line fill="none" stroke="#2E3191" stroke-miterlimit="10" x1="876.3" y1="516.6" x2="716.1" y2="633.4"/>
		<line fill="none" stroke="#2E3191" stroke-miterlimit="10" x1="876.3" y1="516.6" x2="624.4" y2="417.1"/>
		<line fill="none" stroke="#2E3191" stroke-miterlimit="10" x1="624.4" y1="417.1" x2="716.1" y2="633.4"/>
		<g>
			<path fill="#231F20" d="M685.8,645.1l-0.3-2.8h-0.2c-1.2,1.7-3.6,3.3-6.8,3.3c-4.5,0-6.8-3.1-6.8-6.3c0-5.3,4.8-8.2,13.2-8.1
				v-0.5c0-1.8-0.5-5.1-4.9-5.1c-2,0-4.1,0.7-5.8,1.7l-1-2.6c1.8-1.2,4.5-2,7.3-2c6.8,0,8.2,4.6,8.2,8.9v8.2c0,1.8,0.2,3.8,0.3,5.3
				H685.8z M685.1,633.9c-4.3-0.2-9.2,0.7-9.2,5c0,2.6,1.6,3.8,3.8,3.8c2.8,0,4.6-1.8,5.3-3.6c0.2-0.3,0.2-0.8,0.2-1.3V633.9z"/>
		</g>
		<g>
			<path fill="#231F20" d="M583,429c0.2-1.5,0.2-3.6,0.2-5.6V397h4v13.7h0.2c1.5-2.5,4-4,7.4-4c5.4,0,9.2,4.5,9.2,11.2
				c0,7.8-4.9,11.7-9.7,11.7c-3.1,0-5.8-1.2-7.3-4.1h-0.2l-0.2,3.6H583V429z M587.1,420.1c0,0.5,0.2,1,0.2,1.5
				c0.8,2.8,3.1,4.6,5.9,4.6c4.1,0,6.6-3.5,6.6-8.4c0-4.5-2.3-8.1-6.4-8.1c-2.6,0-5.3,1.8-6.1,5c-0.2,0.5-0.2,1-0.2,1.6V420.1z"/>
		</g>
		<g>
			<path fill="#231F20" d="M923.5,527.5c-1,0.5-3.3,1.3-6.3,1.3c-6.6,0-10.9-4.5-10.9-11.2c0-6.8,4.6-11.6,11.7-11.6
				c2.3,0,4.5,0.7,5.4,1.2l-0.8,3.1c-1-0.5-2.5-1-4.6-1c-5,0-7.8,3.6-7.8,8.3c0,5.1,3.3,8.2,7.6,8.2c2.3,0,3.8-0.7,5-1.2
				L923.5,527.5z"/>
		</g>
		<g>
			<path fill="#231F20" d="M403.1,592.8v26.4c0,2,0,4.1,0.2,5.6h-3.6l-0.2-3.8h-0.2c-1.2,2.5-4,4.3-7.4,4.3c-5.3,0-9.4-4.5-9.4-11.1
				c0-7.3,4.5-11.7,9.7-11.7c3.3,0,5.6,1.7,6.6,3.3h0.2v-13H403.1z M399.1,612c0-0.5,0-1.2-0.2-1.7c-0.7-2.5-2.8-4.6-5.8-4.6
				c-4.1,0-6.6,3.6-6.6,8.4c0,4.5,2.1,8.1,6.4,8.1c2.6,0,5.1-1.8,5.8-4.8c0.2-0.5,0.2-1.2,0.2-1.6V612H399.1z"/>
		</g>
	</g>
</g>
<g id="Layer_2_1_">
	<circle fill="#231F20" cx="144.7" cy="338.1" r="10.6"/>
	<circle fill="#231F20" cx="310.4" cy="172.5" r="10.6"/>
	<circle fill="#231F20" cx="508" cy="129.4" r="10.6"/>
	<circle fill="#231F20" cx="94.3" cy="87.3" r="10.6"/>
	<g>
		<g>
			<line fill="none" stroke="#231F20" stroke-miterlimit="10" x1="489.7" y1="133.3" x2="342.1" y2="165.6"/>
			<g>
				<path fill="#231F20" d="M330.3,168.2c5.1-3.3,11.2-8.3,14.7-12.9l-1.3,10l5.4,8.6C344,171,336.3,169,330.3,168.2z"/>
			</g>
		</g>
	</g>
	<g>
		<g>
			<line fill="none" stroke="#231F20" stroke-miterlimit="10" x1="296.3" y1="186.7" x2="167.8" y2="315"/>
			<g>
				<path fill="#231F20" d="M159.2,323.6c2.5-5.5,5-13,5.4-18.8l4.3,9.2l9.2,4.3C172.3,318.6,164.7,321,159.2,323.6z"/>
			</g>
		</g>
	</g>
	<g>
		<g>
			<line fill="none" stroke="#231F20" stroke-miterlimit="10" x1="292.4" y1="165.4" x2="123.7" y2="98.9"/>
			<g>
				<path fill="#231F20" d="M112.5,94.5c6.1,0.1,13.9-0.6,19.4-2.6l-6.7,7.6l-0.3,10.1C122.2,104.4,117,98.5,112.5,94.5z"/>
			</g>
		</g>
	</g>
	<g>
		<g>
			<line fill="none" stroke="#231F20" stroke-miterlimit="10" x1="98.6" y1="108.4" x2="138.9" y2="309"/>
			<g>
				<path fill="#231F20" d="M141.2,320.8c-3.2-5.2-8.1-11.4-12.7-14.9l10,1.5l8.6-5.2C144.3,307.2,142.2,314.8,141.2,320.8z"/>
			</g>
		</g>
	</g>
	<g>
		<path fill="#231F20" d="M60.2,71.1l-0.3-2.4h-0.1c-1,1.4-3.1,2.8-5.8,2.8c-3.8,0-5.8-2.7-5.8-5.4c0-4.5,4.1-7.1,11.3-6.9v-0.4
			c0-1.6-0.4-4.4-4.2-4.4c-1.7,0-3.5,0.6-5,1.4l-0.7-2.3c1.6-1,3.8-1.7,6.2-1.7c5.8,0,7.1,4,7.1,7.6v7.1c0,1.6,0.1,3.3,0.3,4.5H60.2
			z M59.8,61.6c-3.7-0.1-7.9,0.6-7.9,4.2c0,2.3,1.4,3.3,3.3,3.3c2.4,0,4-1.6,4.5-3.1c0.1-0.3,0.1-0.7,0.1-1.1V61.6z"/>
	</g>
	<g>
		<path fill="#231F20" d="M97,348.3c0.1-1.3,0.1-3.1,0.1-4.8v-22.6h3.4v11.7h0.1c1.3-2.1,3.4-3.4,6.4-3.4c4.7,0,7.9,3.8,7.9,9.6
			c0,6.7-4.2,10-8.3,10c-2.7,0-5-1-6.2-3.5h-0.1l-0.1,3.1H97V348.3z M100.6,340.6c0,0.4,0.1,0.8,0.1,1.3c0.7,2.4,2.7,4,5.1,4
			c3.5,0,5.7-3,5.7-7.2c0-3.8-2-6.9-5.5-6.9c-2.3,0-4.5,1.6-5.2,4.2c-0.1,0.4-0.1,0.8-0.1,1.4L100.6,340.6L100.6,340.6z"/>
	</g>
	<g>
		<path fill="#231F20" d="M311,149.5c-0.8,0.4-2.8,1.1-5.4,1.1c-5.7,0-9.3-3.8-9.3-9.6c0-5.8,4-9.9,10-9.9c2,0,3.8,0.6,4.7,1
			l-0.7,2.7c-0.8-0.4-2.1-0.8-4-0.8c-4.2,0-6.7,3.1-6.7,7.1c0,4.4,2.8,7.1,6.5,7.1c2,0,3.3-0.6,4.2-1L311,149.5z"/>
	</g>
	<g>
		<path fill="#231F20" d="M526.9,80.5v22.6c0,1.7,0,3.5,0.1,4.8h-3.1l-0.1-3.3h-0.1c-1,2.1-3.4,3.7-6.4,3.7c-4.5,0-8.1-3.8-8.1-9.5
			c0-6.2,3.8-10,8.3-10c2.8,0,4.8,1.4,5.7,2.8h0.1V80.5H526.9z M523.5,97c0-0.4,0-1-0.1-1.4c-0.6-2.1-2.4-4-5-4
			c-3.5,0-5.7,3.1-5.7,7.2c0,3.8,1.8,6.9,5.5,6.9c2.3,0,4.4-1.6,5-4.1c0.1-0.4,0.1-1,0.1-1.4V97H523.5z"/>
	</g>
</g>
<g id="Layer_3">
	<g>
		<circle fill="#231F20" cx="669" cy="335.5" r="10.6"/>
		<circle fill="#231F20" cx="834.1" cy="170.5" r="10.6"/>
		<circle fill="#231F20" cx="1031" cy="127.5" r="10.6"/>
		<circle fill="#231F20" cx="618.8" cy="85.6" r="10.6"/>
		<g>
			<polygon fill="#231F20" points="1012.8,131.4 854.6,169.1 853.3,163.2 			"/>
		</g>
		<g>
			<polygon fill="#231F20" points="820,184.6 685.6,323.1 681.3,318.9 			"/>
		</g>
		<g>
			<polygon fill="#231F20" points="816.2,163.4 635.7,95.5 637.9,89.9 			"/>
		</g>
		<g>
			<polygon fill="#231F20" points="623,106.6 668.5,317.7 662.6,318.8 			"/>
		</g>
		<g>
			<path fill="#231F20" d="M584.8,69.3l-0.3-2.4h-0.1c-1,1.4-3.1,2.8-5.8,2.8c-3.8,0-5.8-2.7-5.8-5.4c0-4.5,4.1-7.1,11.3-6.9v-0.4
				c0-1.6-0.4-4.4-4.2-4.4c-1.7,0-3.5,0.6-4.9,1.4l-0.7-2.3c1.6-1,3.8-1.7,6.2-1.7c5.8,0,7.1,3.9,7.1,7.6v7.1c0,1.6,0.1,3.2,0.3,4.5
				H584.8z M584.4,59.9c-3.7-0.1-7.9,0.6-7.9,4.2c0,2.3,1.4,3.2,3.2,3.2c2.4,0,3.9-1.6,4.5-3.1c0.1-0.3,0.1-0.7,0.1-1.1V59.9z"/>
		</g>
		<g>
			<path fill="#231F20" d="M621.4,345.6c0.1-1.3,0.1-3.1,0.1-4.8v-22.6h3.4V330h0.1c1.3-2.1,3.4-3.4,6.3-3.4c4.7,0,7.9,3.8,7.9,9.6
				c0,6.6-4.2,10-8.3,10c-2.7,0-4.9-1-6.2-3.5h-0.1l-0.1,3.1h-3.1V345.6z M625,338c0,0.4,0.1,0.8,0.1,1.3c0.7,2.4,2.7,3.9,5.1,3.9
				c3.5,0,5.6-3,5.6-7.2c0-3.8-2-6.9-5.5-6.9c-2.3,0-4.5,1.6-5.2,4.2c-0.1,0.4-0.1,0.8-0.1,1.4V338L625,338z"/>
		</g>
		<g>
			<path fill="#231F20" d="M834.7,147.5c-0.8,0.4-2.8,1.1-5.4,1.1c-5.6,0-9.3-3.8-9.3-9.6c0-5.8,3.9-9.9,10-9.9c2,0,3.8,0.6,4.7,1
				l-0.7,2.7c-0.8-0.4-2.1-0.8-3.9-0.8c-4.2,0-6.6,3.1-6.6,7.1c0,4.4,2.8,7.1,6.5,7.1c2,0,3.2-0.6,4.2-1L834.7,147.5z"/>
		</g>
		<g>
			<path fill="#231F20" d="M1049.9,78.8v22.6c0,1.7,0,3.5,0.1,4.8h-3.1l-0.1-3.2h-0.1c-1,2.1-3.4,3.7-6.3,3.7c-4.5,0-8-3.8-8-9.4
				c0-6.2,3.8-10,8.3-10c2.8,0,4.8,1.4,5.6,2.8h0.1V78.8H1049.9z M1046.5,95.2c0-0.4,0-1-0.1-1.4c-0.6-2.1-2.4-3.9-4.9-3.9
				c-3.5,0-5.6,3.1-5.6,7.2c0,3.8,1.8,6.9,5.5,6.9c2.3,0,4.4-1.6,4.9-4.1c0.1-0.4,0.1-1,0.1-1.4v-3.2H1046.5z"/>
		</g>
	</g>
	<g>
		<circle fill="#231F20" cx="157.4" cy="692.2" r="10.6"/>
		<circle fill="#231F20" cx="322.5" cy="527.2" r="10.6"/>
		<circle fill="#231F20" cx="519.4" cy="484.2" r="10.6"/>
		<circle fill="#231F20" cx="107.2" cy="442.4" r="10.6"/>
		<linearGradient id="SVGID_1_" gradientUnits="userSpaceOnUse" x1="342.3257" y1="505.5599" x2="501.2193" y2="505.5599">
			<stop  offset="0" style="stop-color:#FFFFFF"/>
			<stop  offset="1" style="stop-color:#000000"/>
		</linearGradient>
		<linearGradient id="SVGID_2_" gradientUnits="userSpaceOnUse" x1="341.6854" y1="505.5599" x2="501.8596" y2="505.5599">
			<stop  offset="0" style="stop-color:#000000"/>
			<stop  offset="1" style="stop-color:#FFFFFF"/>
		</linearGradient>
		
			<line fill="url(#SVGID_1_)" stroke="url(#SVGID_2_)" stroke-width="6" stroke-miterlimit="10" x1="501.2" y1="488.2" x2="342.3" y2="522.9"/>
		<linearGradient id="SVGID_3_" gradientUnits="userSpaceOnUse" x1="169.7152" y1="609.5624" x2="310.5195" y2="609.5624">
			<stop  offset="0" style="stop-color:#000000"/>
			<stop  offset="1" style="stop-color:#FFFFFF"/>
		</linearGradient>
		
			<line fill="none" stroke="url(#SVGID_3_)" stroke-width="6" stroke-miterlimit="10" x1="308.4" y1="541.3" x2="171.8" y2="677.8"/>
		<linearGradient id="SVGID_4_" gradientUnits="userSpaceOnUse" x1="124.1243" y1="484.8277" x2="305.6724" y2="484.8277">
			<stop  offset="0" style="stop-color:#000000"/>
			<stop  offset="1" style="stop-color:#FFFFFF"/>
		</linearGradient>
		
			<line fill="none" stroke="url(#SVGID_4_)" stroke-width="6" stroke-miterlimit="10" x1="304.6" y1="520.2" x2="125.2" y2="449.5"/>
		<linearGradient id="SVGID_5_" gradientUnits="userSpaceOnUse" x1="108.4405" y1="569.2029" x2="156.8489" y2="569.2029">
			<stop  offset="0" style="stop-color:#000000"/>
			<stop  offset="1" style="stop-color:#FFFFFF"/>
		</linearGradient>
		<line fill="none" stroke="url(#SVGID_5_)" stroke-width="6" stroke-miterlimit="10" x1="111.4" y1="463.4" x2="153.9" y2="675"/>
		<g>
			<path fill="#231F20" d="M73.2,426.1l-0.3-2.4h-0.1c-1,1.4-3.1,2.8-5.8,2.8c-3.8,0-5.8-2.7-5.8-5.4c0-4.5,4.1-7.1,11.3-6.9v-0.4
				c0-1.6-0.4-4.4-4.2-4.4c-1.7,0-3.5,0.6-4.9,1.4l-0.7-2.3c1.6-1,3.8-1.7,6.2-1.7c5.8,0,7.1,3.9,7.1,7.6v7.1c0,1.6,0.1,3.2,0.3,4.5
				H73.2z M72.8,416.7c-3.7-0.1-7.9,0.6-7.9,4.2c0,2.3,1.4,3.2,3.2,3.2c2.4,0,3.9-1.6,4.5-3.1c0.1-0.3,0.1-0.7,0.1-1.1V416.7z"/>
		</g>
		<g>
			<path fill="#231F20" d="M109.8,702.4c0.1-1.3,0.1-3.1,0.1-4.8V675h3.4v11.7h0.1c1.3-2.1,3.4-3.4,6.3-3.4c4.7,0,7.9,3.8,7.9,9.6
				c0,6.6-4.2,10-8.3,10c-2.7,0-4.9-1-6.2-3.5h-0.1l-0.1,3.1h-3.1V702.4z M113.4,694.8c0,0.4,0.1,0.8,0.1,1.3
				c0.7,2.4,2.7,3.9,5.1,3.9c3.5,0,5.6-3,5.6-7.2c0-3.8-2-6.9-5.5-6.9c-2.3,0-4.5,1.6-5.2,4.2c-0.1,0.4-0.1,0.8-0.1,1.4L113.4,694.8
				L113.4,694.8z"/>
		</g>
		<g>
			<path fill="#231F20" d="M323.1,504.3c-0.8,0.4-2.8,1.1-5.4,1.1c-5.6,0-9.3-3.8-9.3-9.6s3.9-9.9,10-9.9c2,0,3.8,0.6,4.7,1
				l-0.7,2.7c-0.8-0.4-2.1-0.8-3.9-0.8c-4.2,0-6.6,3.1-6.6,7.1c0,4.4,2.8,7.1,6.5,7.1c2,0,3.2-0.6,4.2-1L323.1,504.3z"/>
		</g>
		<g>
			<path fill="#231F20" d="M538.3,435.6v22.6c0,1.7,0,3.5,0.1,4.8h-3.1l-0.1-3.2H535c-1,2.1-3.4,3.7-6.3,3.7c-4.5,0-8-3.8-8-9.4
				c0-6.2,3.8-10,8.3-10c2.8,0,4.8,1.4,5.6,2.8h0.1v-11.1H538.3z M534.9,451.9c0-0.4,0-1-0.1-1.4c-0.6-2.1-2.4-3.9-4.9-3.9
				c-3.5,0-5.6,3.1-5.6,7.2c0,3.8,1.8,6.9,5.5,6.9c2.3,0,4.4-1.6,4.9-4.1c0.1-0.4,0.1-1,0.1-1.4v-3.2H534.9z"/>
		</g>
	</g>
	<circle fill="#231F20" cx="711.5" cy="692.2" r="10.6"/>
	<circle fill="#231F20" cx="876.6" cy="527.2" r="10.6"/>
	<circle fill="#231F20" cx="1073.5" cy="484.2" r="10.6"/>
	<circle fill="#231F20" cx="661.3" cy="442.4" r="10.6"/>
	<linearGradient id="SVGID_6_" gradientUnits="userSpaceOnUse" x1="896.4597" y1="505.5599" x2="1055.3533" y2="505.5599">
		<stop  offset="0" style="stop-color:#FFFFFF"/>
		<stop  offset="1" style="stop-color:#000000"/>
	</linearGradient>
	<linearGradient id="SVGID_7_" gradientUnits="userSpaceOnUse" x1="895.8193" y1="505.5599" x2="1055.9937" y2="505.5599">
		<stop  offset="0" style="stop-color:#790000"/>
		<stop  offset="5.311159e-02" style="stop-color:#831200"/>
		<stop  offset="0.3552" style="stop-color:#B77600"/>
		<stop  offset="0.599" style="stop-color:#DEC000"/>
		<stop  offset="0.7724" style="stop-color:#F6EE00"/>
		<stop  offset="0.8593" style="stop-color:#FFFF00"/>
	</linearGradient>
	
		<line fill="url(#SVGID_6_)" stroke="url(#SVGID_7_)" stroke-width="6" stroke-miterlimit="10" x1="1055.4" y1="488.2" x2="896.5" y2="522.9"/>
	<linearGradient id="SVGID_8_" gradientUnits="userSpaceOnUse" x1="723.8492" y1="609.5624" x2="864.6535" y2="609.5624">
		<stop  offset="0" style="stop-color:#790000"/>
		<stop  offset="5.311159e-02" style="stop-color:#831200"/>
		<stop  offset="0.3552" style="stop-color:#B77600"/>
		<stop  offset="0.599" style="stop-color:#DEC000"/>
		<stop  offset="0.7724" style="stop-color:#F6EE00"/>
		<stop  offset="0.8593" style="stop-color:#FFFF00"/>
	</linearGradient>
	<line fill="none" stroke="url(#SVGID_8_)" stroke-width="6" stroke-miterlimit="10" x1="862.5" y1="541.3" x2="726" y2="677.8"/>
	<linearGradient id="SVGID_9_" gradientUnits="userSpaceOnUse" x1="678.2582" y1="484.8277" x2="859.8063" y2="484.8277">
		<stop  offset="0" style="stop-color:#790000"/>
		<stop  offset="5.311159e-02" style="stop-color:#831200"/>
		<stop  offset="0.3552" style="stop-color:#B77600"/>
		<stop  offset="0.599" style="stop-color:#DEC000"/>
		<stop  offset="0.7724" style="stop-color:#F6EE00"/>
		<stop  offset="0.8593" style="stop-color:#FFFF00"/>
	</linearGradient>
	<line fill="none" stroke="url(#SVGID_9_)" stroke-width="6" stroke-miterlimit="10" x1="858.7" y1="520.2" x2="679.4" y2="449.5"/>
	<linearGradient id="SVGID_10_" gradientUnits="userSpaceOnUse" x1="662.5745" y1="569.2029" x2="710.9829" y2="569.2029">
		<stop  offset="0" style="stop-color:#790000"/>
		<stop  offset="5.311159e-02" style="stop-color:#831200"/>
		<stop  offset="0.3552" style="stop-color:#B77600"/>
		<stop  offset="0.599" style="stop-color:#DEC000"/>
		<stop  offset="0.7724" style="stop-color:#F6EE00"/>
		<stop  offset="0.8593" style="stop-color:#FFFF00"/>
	</linearGradient>
	<line fill="none" stroke="url(#SVGID_10_)" stroke-width="6" stroke-miterlimit="10" x1="665.5" y1="463.4" x2="708" y2="675"/>
	<g>
		<path fill="#231F20" d="M627.3,426.1l-0.3-2.4h-0.1c-1,1.4-3.1,2.8-5.8,2.8c-3.8,0-5.8-2.7-5.8-5.4c0-4.5,4.1-7.1,11.3-6.9v-0.4
			c0-1.6-0.4-4.4-4.2-4.4c-1.7,0-3.5,0.6-4.9,1.4l-0.7-2.3c1.6-1,3.8-1.7,6.2-1.7c5.8,0,7.1,3.9,7.1,7.6v7.1c0,1.6,0.1,3.2,0.3,4.5
			H627.3z M626.9,416.7c-3.7-0.1-7.9,0.6-7.9,4.2c0,2.3,1.4,3.2,3.2,3.2c2.4,0,3.9-1.6,4.5-3.1c0.1-0.3,0.1-0.7,0.1-1.1V416.7z"/>
	</g>
	<g>
		<path fill="#231F20" d="M664,702.4c0.1-1.3,0.1-3.1,0.1-4.8V675h3.4v11.7h0.1c1.3-2.1,3.4-3.4,6.3-3.4c4.7,0,7.9,3.8,7.9,9.6
			c0,6.6-4.2,10-8.3,10c-2.7,0-4.9-1-6.2-3.5h-0.1l-0.1,3.1H664V702.4z M667.5,694.8c0,0.4,0.1,0.8,0.1,1.3c0.7,2.4,2.7,3.9,5.1,3.9
			c3.5,0,5.6-3,5.6-7.2c0-3.8-2-6.9-5.5-6.9c-2.3,0-4.5,1.6-5.2,4.2c-0.1,0.4-0.1,0.8-0.1,1.4V694.8L667.5,694.8z"/>
	</g>
	<g>
		<path fill="#231F20" d="M877.2,504.3c-0.8,0.4-2.8,1.1-5.4,1.1c-5.6,0-9.3-3.8-9.3-9.6s3.9-9.9,10-9.9c2,0,3.8,0.6,4.7,1l-0.7,2.7
			c-0.8-0.4-2.1-0.8-3.9-0.8c-4.2,0-6.6,3.1-6.6,7.1c0,4.4,2.8,7.1,6.5,7.1c2,0,3.2-0.6,4.2-1L877.2,504.3z"/>
	</g>
	<g>
		<path fill="#231F20" d="M1092.4,435.6v22.6c0,1.7,0,3.5,0.1,4.8h-3.1l-0.1-3.2h-0.1c-1,2.1-3.4,3.7-6.3,3.7c-4.5,0-8-3.8-8-9.4
			c0-6.2,3.8-10,8.3-10c2.8,0,4.8,1.4,5.6,2.8h0.1v-11.1H1092.4z M1089,451.9c0-0.4,0-1-0.1-1.4c-0.6-2.1-2.4-3.9-4.9-3.9
			c-3.5,0-5.6,3.1-5.6,7.2c0,3.8,1.8,6.9,5.5,6.9c2.3,0,4.4-1.6,4.9-4.1c0.1-0.4,0.1-1,0.1-1.4v-3.2H1089z"/>
	</g>
</g>
</svg>
