<?xml version="1.0" encoding="utf-8"?>
<!-- Generator: Adobe Illustrator 18.0.0, SVG Export Plug-In . SVG Version: 6.00 Build 0)  -->
<!DOCTYPE svg PUBLIC "-//W3C//DTD SVG 1.1//EN" "http://www.w3.org/Graphics/SVG/1.1/DTD/svg11.dtd">
<svg version="1.1" xmlns="http://www.w3.org/2000/svg" xmlns:xlink="http://www.w3.org/1999/xlink" x="0px" y="0px"
	 viewBox="0 0 1224 792" enable-background="new 0 0 1224 792" xml:space="preserve">
<g id="Layer_1" display="none">
	<g id="Layer_2" display="inline">
		<circle fill="#2E3191" cx="716.1" cy="633.4" r="12.4"/>
		<circle fill="#2E3191" cx="876.3" cy="516.6" r="12.4"/>
		<circle fill="#2E3191" cx="442" cy="613.1" r="12.4"/>
		<circle fill="#2E3191" cx="624.4" cy="417.1" r="12.4"/>
		<line fill="none" stroke="#2E3191" stroke-miterlimit="10" x1="442" y1="613.1" x2="876.3" y2="516.6"/>
		<line fill="none" stroke="#2E3191" stroke-miterlimit="10" x1="876.3" y1="516.6" x2="716.1" y2="633.4"/>
		<line fill="none" stroke="#2E3191" stroke-miterlimit="10" x1="876.3" y1="516.6" x2="624.4" y2="417.1"/>
		<line fill="none" stroke="#2E3191" stroke-miterlimit="10" x1="624.4" y1="417.1" x2="716.1" y2="633.4"/>
		<g>
			<path fill="#231F20" d="M685.8,645.1l-0.3-2.8h-0.2c-1.2,1.7-3.6,3.3-6.8,3.3c-4.5,0-6.8-3.1-6.8-6.3c0-5.3,4.8-8.2,13.2-8.1
				v-0.5c0-1.8-0.5-5.1-4.9-5.1c-2,0-4.1,0.7-5.8,1.7l-1-2.6c1.8-1.2,4.5-2,7.3-2c6.8,0,8.2,4.6,8.2,8.9v8.2c0,1.8,0.2,3.8,0.3,5.3
				H685.8z M685.1,633.9c-4.3-0.2-9.2,0.7-9.2,5c0,2.6,1.6,3.8,3.8,3.8c2.8,0,4.6-1.8,5.3-3.6c0.2-0.3,0.2-0.8,0.2-1.3V633.9z"/>
		</g>
		<g>
			<path fill="#231F20" d="M583,429c0.2-1.5,0.2-3.6,0.2-5.6V397h4v13.7h0.2c1.5-2.5,4-4,7.4-4c5.4,0,9.2,4.5,9.2,11.2
				c0,7.8-4.9,11.7-9.7,11.7c-3.1,0-5.8-1.2-7.3-4.1h-0.2l-0.2,3.6H583V429z M587.1,420.1c0,0.5,0.2,1,0.2,1.5
				c0.8,2.8,3.1,4.6,5.9,4.6c4.1,0,6.6-3.5,6.6-8.4c0-4.5-2.3-8.1-6.4-8.1c-2.6,0-5.3,1.8-6.1,5c-0.2,0.5-0.2,1-0.2,1.6V420.1z"/>
		</g>
		<g>
			<path fill="#231F20" d="M923.5,527.5c-1,0.5-3.3,1.3-6.3,1.3c-6.6,0-10.9-4.5-10.9-11.2c0-6.8,4.6-11.6,11.7-11.6
				c2.3,0,4.5,0.7,5.4,1.2l-0.8,3.1c-1-0.5-2.5-1-4.6-1c-5,0-7.8,3.6-7.8,8.3c0,5.1,3.3,8.2,7.6,8.2c2.3,0,3.8-0.7,5-1.2
				L923.5,527.5z"/>
		</g>
		<g>
			<path fill="#231F20" d="M403.1,592.8v26.4c0,2,0,4.1,0.2,5.6h-3.6l-0.2-3.8h-0.2c-1.2,2.5-4,4.3-7.4,4.3c-5.3,0-9.4-4.5-9.4-11.1
				c0-7.3,4.5-11.7,9.7-11.7c3.3,0,5.6,1.7,6.6,3.3h0.2v-13H403.1z M399.1,612c0-0.5,0-1.2-0.2-1.7c-0.7-2.5-2.8-4.6-5.8-4.6
				c-4.1,0-6.6,3.6-6.6,8.4c0,4.5,2.1,8.1,6.4,8.1c2.6,0,5.1-1.8,5.8-4.8c0.2-0.5,0.2-1.2,0.2-1.6V612H399.1z"/>
		</g>
	</g>
</g>
<g id="Layer_2_1_">
	<circle fill="#231F20" cx="144.7" cy="338.1" r="10.6"/>
	<circle fill="#231F20" cx="310.4" cy="172.5" r="10.6"/>
	<circle fill="#231F20" cx="508" cy="129.4" r="10.6"/>
	<circle fill="#231F20" cx="94.3" cy="87.3" r="10.6"/>
	<line fill="none" stroke="#231F20" stroke-miterlimit="10" x1="489.7" y1="133.3" x2="330.3" y2="168.2"/>
	<line fill="none" stroke="#231F20" stroke-width="9" stroke-miterlimit="10" x1="296.3" y1="186.7" x2="159.2" y2="323.6"/>
	<line fill="none" stroke="#231F20" stroke-width="2" stroke-miterlimit="10" x1="292.4" y1="165.4" x2="112.5" y2="94.5"/>
	<line fill="none" stroke="#231F20" stroke-width="4" stroke-miterlimit="10" x1="98.6" y1="108.4" x2="141.2" y2="320.8"/>
	<g>
		<path fill="#231F20" d="M60.2,71.1l-0.3-2.4h-0.1c-1,1.4-3.1,2.8-5.8,2.8c-3.8,0-5.8-2.7-5.8-5.4c0-4.5,4.1-7.1,11.3-6.9v-0.4
			c0-1.6-0.4-4.4-4.2-4.4c-1.7,0-3.5,0.6-5,1.4l-0.7-2.3c1.6-1,3.8-1.7,6.2-1.7c5.8,0,7.1,4,7.1,7.6v7.1c0,1.6,0.1,3.3,0.3,4.5H60.2
			z M59.8,61.6c-3.7-0.1-7.9,0.6-7.9,4.2c0,2.3,1.4,3.3,3.3,3.3c2.4,0,4-1.6,4.5-3.1c0.1-0.3,0.1-0.7,0.1-1.1V61.6z"/>
	</g>
	<g>
		<path fill="#231F20" d="M97,348.3c0.1-1.3,0.1-3.1,0.1-4.8v-22.6h3.4v11.7h0.1c1.3-2.1,3.4-3.4,6.4-3.4c4.7,0,7.9,3.8,7.9,9.6
			c0,6.7-4.2,10-8.3,10c-2.7,0-5-1-6.2-3.5h-0.1l-0.1,3.1H97V348.3z M100.6,340.6c0,0.4,0.1,0.8,0.1,1.3c0.7,2.4,2.7,4,5.1,4
			c3.5,0,5.7-3,5.7-7.2c0-3.8-2-6.9-5.5-6.9c-2.3,0-4.5,1.6-5.2,4.2c-0.1,0.4-0.1,0.8-0.1,1.4L100.6,340.6L100.6,340.6z"/>
	</g>
	<g>
		<path fill="#231F20" d="M311,149.5c-0.8,0.4-2.8,1.1-5.4,1.1c-5.7,0-9.3-3.8-9.3-9.6c0-5.8,4-9.9,10-9.9c2,0,3.8,0.6,4.7,1
			l-0.7,2.7c-0.8-0.4-2.1-0.8-4-0.8c-4.2,0-6.7,3.1-6.7,7.1c0,4.4,2.8,7.1,6.5,7.1c2,0,3.3-0.6,4.2-1L311,149.5z"/>
	</g>
	<g>
		<path fill="#231F20" d="M526.9,80.5v22.6c0,1.7,0,3.5,0.1,4.8h-3.1l-0.1-3.3h-0.1c-1,2.1-3.4,3.7-6.4,3.7c-4.5,0-8.1-3.8-8.1-9.5
			c0-6.2,3.8-10,8.3-10c2.8,0,4.8,1.4,5.7,2.8h0.1V80.5H526.9z M523.5,97c0-0.4,0-1-0.1-1.4c-0.6-2.1-2.4-4-5-4
			c-3.5,0-5.7,3.1-5.7,7.2c0,3.8,1.8,6.9,5.5,6.9c2.3,0,4.4-1.6,5-4.1c0.1-0.4,0.1-1,0.1-1.4V97H523.5z"/>
	</g>
	<g>
		<path d="M415.7,167.5L415.7,167.5l-2.8,1.5l-0.4-1.6l3.4-1.8h1.8v15.6h-2V167.5z"/>
	</g>
	<g>
		<path d="M246.7,275.5c0.5,0,1,0,1.7-0.1c1.2-0.2,2.4-0.7,3.3-1.5c1-0.9,1.8-2.3,2.1-4.2h-0.1c-0.9,1.1-2.1,1.7-3.7,1.7
			c-2.8,0-4.6-2.1-4.6-4.8c0-3,2.1-5.5,5.3-5.5s5.2,2.6,5.2,6.6c0,3.4-1.2,5.8-2.7,7.3c-1.2,1.2-2.9,1.9-4.5,2.1
			c-0.8,0.1-1.4,0.1-1.9,0.1V275.5z M247.5,266.5c0,1.9,1.2,3.3,3,3.3c1.4,0,2.5-0.7,3.1-1.6c0.1-0.2,0.2-0.4,0.2-0.8
			c0-2.7-1-4.7-3.2-4.7C248.8,262.7,247.5,264.3,247.5,266.5z"/>
	</g>
	<g>
		<path d="M101.3,236v-4.2h-7.2v-1.4l7-10h2.3v9.7h2.2v1.7h-2.2v4.2H101.3z M101.3,230.1v-5.2c0-0.8,0-1.6,0.1-2.4h-0.1
			c-0.5,0.9-0.9,1.6-1.3,2.3l-3.8,5.3v0H101.3z"/>
	</g>
	<g>
		<path d="M203.5,122.3V121l1.7-1.6c4-3.8,5.8-5.8,5.8-8.2c0-1.6-0.8-3-3.1-3c-1.4,0-2.6,0.7-3.3,1.3l-0.7-1.5
			c1.1-0.9,2.6-1.6,4.4-1.6c3.4,0,4.8,2.3,4.8,4.5c0,2.9-2.1,5.2-5.4,8.4l-1.2,1.2v0h7v1.8H203.5z"/>
	</g>
	<g>
		<path d="M940.4,167.5L940.4,167.5l-2.8,1.5l-0.4-1.6l3.4-1.8h1.8v15.6h-2V167.5z"/>
	</g>
	<g>
		<path d="M771.4,275.5c0.5,0,1,0,1.7-0.1c1.2-0.2,2.4-0.7,3.3-1.5c1-0.9,1.8-2.3,2.1-4.2h-0.1c-0.9,1.1-2.1,1.7-3.7,1.7
			c-2.8,0-4.6-2.1-4.6-4.8c0-3,2.1-5.5,5.3-5.5s5.2,2.6,5.2,6.6c0,3.4-1.2,5.8-2.7,7.3c-1.2,1.2-2.9,1.9-4.5,2.1
			c-0.8,0.1-1.4,0.1-1.9,0.1V275.5z M772.2,266.5c0,1.9,1.2,3.3,3,3.3c1.4,0,2.5-0.7,3.1-1.6c0.1-0.2,0.2-0.4,0.2-0.8
			c0-2.7-1-4.7-3.2-4.7C773.5,262.7,772.2,264.3,772.2,266.5z"/>
	</g>
	<g>
		<path d="M626,236v-4.2h-7.2v-1.4l7-10h2.3v9.7h2.2v1.7H628v4.2H626z M626,230.1v-5.2c0-0.8,0-1.6,0.1-2.4H626
			c-0.5,0.9-0.9,1.6-1.3,2.3l-3.8,5.3v0H626z"/>
	</g>
	<g>
		<path d="M728.2,122.3V121l1.7-1.6c4-3.8,5.8-5.8,5.8-8.2c0-1.6-0.8-3-3.1-3c-1.4,0-2.6,0.7-3.3,1.3l-0.7-1.5
			c1.1-0.9,2.6-1.6,4.4-1.6c3.4,0,4.8,2.3,4.8,4.5c0,2.9-2.1,5.2-5.4,8.4l-1.2,1.2v0h7v1.8H728.2z"/>
	</g>
</g>
<g id="Layer_3">
	<circle fill="#231F20" cx="669" cy="335.5" r="10.6"/>
	<circle fill="#231F20" cx="834.1" cy="170.5" r="10.6"/>
	<circle fill="#231F20" cx="1031" cy="127.5" r="10.6"/>
	<circle fill="#231F20" cx="618.8" cy="85.6" r="10.6"/>
	<g>
		<polygon fill="#231F20" points="1012.8,131.4 854.6,169.1 853.3,163.2 		"/>
	</g>
	<g>
		<polygon fill="#231F20" points="820,184.6 714.2,330.9 675.7,293.1 		"/>
	</g>
	<g>
		<polygon fill="#231F20" points="816.2,163.4 634.6,98.3 639,87.1 		"/>
	</g>
	<g>
		<polygon fill="#231F20" points="623,108.8 672.4,293.7 648.9,298.5 		"/>
	</g>
	<g>
		<path fill="#231F20" d="M584.8,69.3l-0.3-2.4h-0.1c-1,1.4-3.1,2.8-5.8,2.8c-3.8,0-5.8-2.7-5.8-5.4c0-4.5,4.1-7.1,11.3-6.9v-0.4
			c0-1.6-0.4-4.4-4.2-4.4c-1.7,0-3.5,0.6-4.9,1.4l-0.7-2.3c1.6-1,3.8-1.7,6.2-1.7c5.8,0,7.1,3.9,7.1,7.6v7.1c0,1.6,0.1,3.2,0.3,4.5
			H584.8z M584.4,59.9c-3.7-0.1-7.9,0.6-7.9,4.2c0,2.3,1.4,3.2,3.2,3.2c2.4,0,3.9-1.6,4.5-3.1c0.1-0.3,0.1-0.7,0.1-1.1V59.9z"/>
	</g>
	<g>
		<path fill="#231F20" d="M621.4,345.6c0.1-1.3,0.1-3.1,0.1-4.8v-22.6h3.4V330h0.1c1.3-2.1,3.4-3.4,6.3-3.4c4.7,0,7.9,3.8,7.9,9.6
			c0,6.6-4.2,10-8.3,10c-2.7,0-4.9-1-6.2-3.5h-0.1l-0.1,3.1h-3.1V345.6z M625,338c0,0.4,0.1,0.8,0.1,1.3c0.7,2.4,2.7,3.9,5.1,3.9
			c3.5,0,5.6-3,5.6-7.2c0-3.8-2-6.9-5.5-6.9c-2.3,0-4.5,1.6-5.2,4.2c-0.1,0.4-0.1,0.8-0.1,1.4V338L625,338z"/>
	</g>
	<g>
		<path fill="#231F20" d="M834.7,147.5c-0.8,0.4-2.8,1.1-5.4,1.1c-5.6,0-9.3-3.8-9.3-9.6c0-5.8,3.9-9.9,10-9.9c2,0,3.8,0.6,4.7,1
			l-0.7,2.7c-0.8-0.4-2.1-0.8-3.9-0.8c-4.2,0-6.6,3.1-6.6,7.1c0,4.4,2.8,7.1,6.5,7.1c2,0,3.2-0.6,4.2-1L834.7,147.5z"/>
	</g>
	<g>
		<path fill="#231F20" d="M1049.9,78.8v22.6c0,1.7,0,3.5,0.1,4.8h-3.1l-0.1-3.2h-0.1c-1,2.1-3.4,3.7-6.3,3.7c-4.5,0-8-3.8-8-9.4
			c0-6.2,3.8-10,8.3-10c2.8,0,4.8,1.4,5.6,2.8h0.1V78.8H1049.9z M1046.5,95.2c0-0.4,0-1-0.1-1.4c-0.6-2.1-2.4-3.9-4.9-3.9
			c-3.5,0-5.6,3.1-5.6,7.2c0,3.8,1.8,6.9,5.5,6.9c2.3,0,4.4-1.6,4.9-4.1c0.1-0.4,0.1-1,0.1-1.4v-3.2H1046.5z"/>
	</g>
</g>
</svg>
