<?xml version="1.0" encoding="utf-8"?>
<!-- Generator: Adobe Illustrator 19.1.0, SVG Export Plug-In . SVG Version: 6.00 Build 0)  -->
<svg version="1.1" id="Layer_1" xmlns="http://www.w3.org/2000/svg" xmlns:xlink="http://www.w3.org/1999/xlink" x="0px" y="0px"
	 viewBox="0 0 320.7 402" style="enable-background:new 0 0 320.7 402;" xml:space="preserve">
<style type="text/css">
	.st0{fill:none;}
	.st1{fill:url(#SVGID_1_);}
	.st2{fill:url(#SVGID_2_);}
	.st3{fill:url(#SVGID_3_);}
	.st4{fill:url(#SVGID_4_);}
	.st5{fill:none;stroke:#000000;stroke-miterlimit:10;}
	.st6{fill:url(#SVGID_5_);}
	.st7{fill:url(#SVGID_6_);}
	.st8{fill:url(#SVGID_7_);}
	.st9{fill:url(#SVGID_8_);}
	.st10{fill:url(#SVGID_9_);}
	.st11{fill:url(#SVGID_10_);}
	.st12{fill:url(#SVGID_11_);}
	.st13{fill:url(#SVGID_12_);}
</style>
<g>
	<rect x="62.3" y="62.3" class="st0" width="17" height="15.5"/>
	<path d="M71.4,65.5v4.2h4.1v1.1h-4.1v4.3h-1.2v-4.3h-4.1v-1.1h4.1v-4.2H71.4z"/>
</g>
<g>
	<rect x="62.3" y="109.6" class="st0" width="17" height="15.5"/>
	<path d="M71.4,112.8v4.2h4.1v1.1h-4.1v4.3h-1.2v-4.3h-4.1V117h4.1v-4.2H71.4z"/>
</g>
<linearGradient id="SVGID_1_" gradientUnits="userSpaceOnUse" x1="232.5743" y1="-3.6206" x2="265.8119" y2="-3.6206" gradientTransform="matrix(1 0 0 1 -178.4165 51.4166)">
	<stop  offset="0" style="stop-color:#000000"/>
	<stop  offset="1" style="stop-color:#ED1C24"/>
</linearGradient>
<rect x="54.2" y="35.6" class="st1" width="33.2" height="24.3"/>
<linearGradient id="SVGID_2_" gradientUnits="userSpaceOnUse" x1="232.5743" y1="42.1957" x2="265.8119" y2="42.1957" gradientTransform="matrix(1 0 0 1 -178.4165 51.4166)">
	<stop  offset="0" style="stop-color:#000000"/>
	<stop  offset="1" style="stop-color:#00A14B"/>
</linearGradient>
<rect x="54.2" y="81.5" class="st2" width="33.2" height="24.3"/>
<linearGradient id="SVGID_3_" gradientUnits="userSpaceOnUse" x1="232.5743" y1="88.012" x2="265.8119" y2="88.012" gradientTransform="matrix(1 0 0 1 -178.4165 51.4166)">
	<stop  offset="0" style="stop-color:#000000"/>
	<stop  offset="1" style="stop-color:#21409A"/>
</linearGradient>
<rect x="54.2" y="127.3" class="st3" width="33.2" height="24.3"/>
<linearGradient id="SVGID_4_" gradientUnits="userSpaceOnUse" x1="311.9195" y1="42.1957" x2="381.1571" y2="42.1957" gradientTransform="matrix(1 0 0 1 -178.4165 51.4166)">
	<stop  offset="0" style="stop-color:#000000"/>
	<stop  offset="1" style="stop-color:#FFFFFF"/>
</linearGradient>
<rect x="133.5" y="81.5" class="st4" width="69.2" height="24.3"/>
<path class="st5" d="M94.6,47.8c16.2,0,9.5,45.8,32.5,45.8"/>
<g>
	<g>
		<path class="st5" d="M94.6,93.6c16.2,0,9.5,0,32.5,0"/>
		<g>
			<path d="M126.7,93.6c-1-1-1.5-3.1-1.6-4.5c1.4,1.9,3.3,3.6,5.5,4.5c-2.3,0.9-4,2.7-5.5,4.5C125.3,96.6,125.6,94.8,126.7,93.6z"/>
		</g>
	</g>
</g>
<g>
	<g>
		<path class="st5" d="M124,327.7c1.6,0,0.9,0,3.1,0"/>
		<g>
			<path d="M126.7,327.7c-1-1-1.5-3.1-1.6-4.5c1.4,1.9,3.3,3.6,5.5,4.5c-2.3,0.9-4,2.7-5.5,4.5C125.3,330.7,125.6,328.9,126.7,327.7
				z"/>
		</g>
	</g>
</g>
<g>
	<g>
		<path class="st5" d="M124,218.7c1.6,0,0.9,0,3.1,0"/>
		<g>
			<path d="M126.7,218.7c-1-1-1.5-3.1-1.6-4.5c1.4,1.9,3.3,3.6,5.5,4.5c-2.3,0.9-4,2.7-5.5,4.5C125.3,221.7,125.6,219.9,126.7,218.7
				z"/>
		</g>
	</g>
</g>
<path class="st5" d="M94.6,139.4c16.2,0,9.5-45.8,32.5-45.8"/>
<g>
	<rect x="62.3" y="210.3" class="st0" width="17" height="15.5"/>
	<path d="M71.4,213.5v4.2h4.1v1.1h-4.1v4.3h-1.2v-4.3h-4.1v-1.1h4.1v-4.2H71.4z"/>
</g>
<linearGradient id="SVGID_5_" gradientUnits="userSpaceOnUse" x1="232.5743" y1="144.3794" x2="265.8119" y2="144.3794" gradientTransform="matrix(1 0 0 1 -178.4165 51.4166)">
	<stop  offset="0" style="stop-color:#000000"/>
	<stop  offset="1" style="stop-color:#ED1C24"/>
</linearGradient>
<rect x="54.2" y="183.6" class="st6" width="33.2" height="24.3"/>
<linearGradient id="SVGID_6_" gradientUnits="userSpaceOnUse" x1="232.5743" y1="190.1957" x2="265.8119" y2="190.1957" gradientTransform="matrix(1 0 0 1 -178.4165 51.4166)">
	<stop  offset="0" style="stop-color:#000000"/>
	<stop  offset="1" style="stop-color:#21409A"/>
</linearGradient>
<rect x="54.2" y="229.5" class="st7" width="33.2" height="24.3"/>
<linearGradient id="SVGID_7_" gradientUnits="userSpaceOnUse" x1="427.2646" y1="167.6652" x2="460.5023" y2="167.6652" gradientTransform="matrix(1 0 0 1 -178.4165 51.4166)">
	<stop  offset="0" style="stop-color:#000000"/>
	<stop  offset="1" style="stop-color:#00A14B"/>
</linearGradient>
<rect x="248.8" y="206.9" class="st8" width="33.2" height="24.3"/>
<linearGradient id="SVGID_8_" gradientUnits="userSpaceOnUse" x1="311.9195" y1="167.6652" x2="381.1571" y2="167.6652" gradientTransform="matrix(1 0 0 1 -178.4165 51.4166)">
	<stop  offset="0" style="stop-color:#EC008C"/>
	<stop  offset="0.5" style="stop-color:#939598"/>
	<stop  offset="1" style="stop-color:#00A14B"/>
</linearGradient>
<rect x="133.5" y="206.9" class="st9" width="69.2" height="24.3"/>
<path class="st5" d="M94.6,195.8c16.2,0,9.5,22.9,32.5,22.9"/>
<g>
	<g>
		<path class="st5" d="M210.6,219.1c16.2,0,9.5,0,32.5,0"/>
		<g>
			<path d="M211,219.1c1-1,1.5-3.1,1.6-4.5c-1.4,1.9-3.3,3.6-5.5,4.5c2.3,0.9,4,2.7,5.5,4.5C212.5,222.1,212.1,220.2,211,219.1z"/>
		</g>
	</g>
</g>
<path class="st5" d="M94.6,241.6c16.2,0,9.5-22.9,32.5-22.9"/>
<g>
	<rect x="62.3" y="319.3" class="st0" width="17" height="15.5"/>
	<path d="M71.4,322.5v4.2h4.1v1.1h-4.1v4.3h-1.2v-4.3h-4.1v-1.1h4.1v-4.2H71.4z"/>
</g>
<linearGradient id="SVGID_9_" gradientUnits="userSpaceOnUse" x1="232.5743" y1="253.3794" x2="265.8119" y2="253.3794" gradientTransform="matrix(1 0 0 1 -178.4165 51.4166)">
	<stop  offset="0" style="stop-color:#000000"/>
	<stop  offset="1" style="stop-color:#ED1C24"/>
</linearGradient>
<rect x="54.2" y="292.6" class="st10" width="33.2" height="24.3"/>
<linearGradient id="SVGID_10_" gradientUnits="userSpaceOnUse" x1="232.5743" y1="299.1957" x2="265.8119" y2="299.1957" gradientTransform="matrix(1 0 0 1 -178.4165 51.4166)">
	<stop  offset="0" style="stop-color:#000000"/>
	<stop  offset="1" style="stop-color:#00A14B"/>
</linearGradient>
<rect x="54.2" y="338.5" class="st11" width="33.2" height="24.3"/>
<linearGradient id="SVGID_11_" gradientUnits="userSpaceOnUse" x1="427.2646" y1="276.6652" x2="460.5023" y2="276.6652" gradientTransform="matrix(1 0 0 1 -178.4165 51.4166)">
	<stop  offset="0" style="stop-color:#000000"/>
	<stop  offset="1" style="stop-color:#21409A"/>
</linearGradient>
<rect x="248.8" y="315.9" class="st12" width="33.2" height="24.3"/>
<linearGradient id="SVGID_12_" gradientUnits="userSpaceOnUse" x1="311.9195" y1="276.6652" x2="381.1571" y2="276.6652" gradientTransform="matrix(1 0 0 1 -178.4165 51.4166)">
	<stop  offset="0" style="stop-color:#FFDE17"/>
	<stop  offset="0.5" style="stop-color:#939598"/>
	<stop  offset="1" style="stop-color:#21409A"/>
</linearGradient>
<rect x="133.5" y="315.9" class="st13" width="69.2" height="24.3"/>
<path class="st5" d="M94.6,304.8c16.2,0,9.5,22.9,32.5,22.9"/>
<g>
	<g>
		<path class="st5" d="M210.6,328.1c16.2,0,9.5,0,32.5,0"/>
		<g>
			<path d="M211,328.1c1-1,1.5-3.1,1.6-4.5c-1.4,1.9-3.3,3.6-5.5,4.5c2.3,0.9,4,2.7,5.5,4.5C212.5,331.1,212.1,329.2,211,328.1z"/>
		</g>
	</g>
</g>
<path class="st5" d="M94.6,350.6c16.2,0,9.5-22.9,32.5-22.9"/>
<g>
	<path d="M136.9,61h1.2v8.4h4v1h-5.3V61z"/>
	<path d="M148.9,68.5c0,0.7,0,1.3,0.1,1.8h-1.1l-0.1-1.1h0c-0.3,0.5-1,1.3-2.2,1.3c-1.1,0-2.3-0.6-2.3-3v-4h1.2v3.8
		c0,1.3,0.4,2.2,1.5,2.2c0.8,0,1.4-0.6,1.6-1.1c0.1-0.2,0.1-0.4,0.1-0.6v-4.2h1.2V68.5z"/>
	<path d="M151,65.4c0-0.7,0-1.3-0.1-1.8h1.1l0.1,1.1h0c0.4-0.6,1-1.2,2.1-1.2c0.9,0,1.6,0.6,1.9,1.4h0c0.2-0.4,0.5-0.7,0.8-0.9
		c0.4-0.3,0.9-0.5,1.5-0.5c0.9,0,2.2,0.6,2.2,2.9v4h-1.2v-3.8c0-1.3-0.5-2.1-1.5-2.1c-0.7,0-1.2,0.5-1.5,1.1
		c-0.1,0.2-0.1,0.4-0.1,0.6v4.2h-1.2v-4.1c0-1.1-0.5-1.9-1.4-1.9c-0.8,0-1.3,0.6-1.5,1.2c-0.1,0.2-0.1,0.4-0.1,0.6v4.1H151V65.4z"/>
	<path d="M164,61.7c0,0.4-0.3,0.8-0.8,0.8c-0.4,0-0.7-0.3-0.7-0.8c0-0.4,0.3-0.8,0.8-0.8C163.7,60.9,164,61.3,164,61.7z M162.7,70.4
		v-6.8h1.2v6.8H162.7z"/>
	<path d="M165.9,65.4c0-0.7,0-1.3-0.1-1.8h1.1l0.1,1.1h0c0.3-0.6,1.1-1.3,2.2-1.3c0.9,0,2.4,0.6,2.4,2.9v4h-1.2v-3.9
		c0-1.1-0.4-2-1.6-2c-0.8,0-1.4,0.6-1.7,1.3c-0.1,0.2-0.1,0.4-0.1,0.6v4.1h-1.2V65.4z"/>
	<path d="M177.5,70.4l-0.1-0.9h0c-0.4,0.5-1.1,1-2.1,1c-1.4,0-2.1-1-2.1-1.9c0-1.6,1.5-2.5,4.1-2.5v-0.1c0-0.6-0.2-1.6-1.5-1.6
		c-0.6,0-1.3,0.2-1.8,0.5l-0.3-0.8c0.6-0.4,1.4-0.6,2.2-0.6c2.1,0,2.6,1.4,2.6,2.8v2.5c0,0.6,0,1.2,0.1,1.6H177.5z M177.3,66.9
		c-1.3,0-2.9,0.2-2.9,1.5c0,0.8,0.5,1.2,1.2,1.2c0.9,0,1.4-0.6,1.6-1.1c0-0.1,0.1-0.3,0.1-0.4V66.9z"/>
	<path d="M180.4,65.4c0-0.7,0-1.3-0.1-1.8h1.1l0.1,1.1h0c0.3-0.6,1.1-1.3,2.2-1.3c0.9,0,2.4,0.6,2.4,2.9v4H185v-3.9
		c0-1.1-0.4-2-1.6-2c-0.8,0-1.4,0.6-1.7,1.3c-0.1,0.2-0.1,0.4-0.1,0.6v4.1h-1.2V65.4z"/>
	<path d="M193.1,70.1c-0.3,0.2-1,0.4-1.9,0.4c-2,0-3.4-1.4-3.4-3.5c0-2.1,1.4-3.6,3.6-3.6c0.7,0,1.4,0.2,1.7,0.4l-0.3,1
		c-0.3-0.2-0.8-0.3-1.4-0.3c-1.6,0-2.4,1.1-2.4,2.6c0,1.6,1,2.5,2.4,2.5c0.7,0,1.2-0.2,1.5-0.3L193.1,70.1z"/>
	<path d="M195.1,67.2c0,1.7,1.1,2.4,2.3,2.4c0.9,0,1.4-0.2,1.9-0.4l0.2,0.9c-0.4,0.2-1.2,0.4-2.3,0.4c-2.1,0-3.3-1.4-3.3-3.4
		c0-2,1.2-3.7,3.2-3.7c2.2,0,2.8,1.9,2.8,3.2c0,0.3,0,0.4,0,0.6H195.1z M198.7,66.3c0-0.8-0.3-2-1.7-2c-1.2,0-1.8,1.1-1.9,2H198.7z"
		/>
</g>
<g>
	<path d="M140.2,173.1c0-0.8,0-1.5-0.1-2.1h1.1l0,1.3h0.1c0.3-0.9,1.1-1.5,1.9-1.5c0.1,0,0.2,0,0.4,0v1.2c-0.1,0-0.3,0-0.4,0
		c-0.9,0-1.5,0.7-1.7,1.6c0,0.2-0.1,0.4-0.1,0.6v3.6h-1.2V173.1z"/>
	<path d="M145.4,174.6c0,1.7,1.1,2.4,2.3,2.4c0.9,0,1.4-0.2,1.9-0.4l0.2,0.9c-0.4,0.2-1.2,0.4-2.3,0.4c-2.1,0-3.3-1.4-3.3-3.4
		c0-2,1.2-3.7,3.2-3.7c2.2,0,2.8,1.9,2.8,3.2c0,0.3,0,0.4,0,0.6H145.4z M149,173.8c0-0.8-0.3-2-1.7-2c-1.2,0-1.8,1.1-1.9,2H149z"/>
	<path d="M157.5,167.9v8.2c0,0.6,0,1.3,0.1,1.8h-1.1l-0.1-1.2h0c-0.4,0.8-1.2,1.3-2.3,1.3c-1.6,0-2.9-1.4-2.9-3.4
		c0-2.3,1.4-3.6,3-3.6c1,0,1.7,0.5,2,1h0v-4H157.5z M156.3,173.8c0-0.2,0-0.4-0.1-0.5c-0.2-0.8-0.9-1.4-1.8-1.4c-1.3,0-2,1.1-2,2.6
		c0,1.4,0.7,2.5,2,2.5c0.8,0,1.6-0.5,1.8-1.5c0-0.2,0.1-0.3,0.1-0.5V173.8z"/>
	<path d="M162.4,173.6v0.9H159v-0.9H162.4z"/>
	<path d="M169.9,171c0,0.5-0.1,1-0.1,1.9v3.9c0,1.6-0.3,2.5-1,3.1c-0.7,0.6-1.6,0.8-2.5,0.8c-0.8,0-1.7-0.2-2.3-0.6l0.3-0.9
		c0.4,0.3,1.1,0.5,2,0.5c1.3,0,2.2-0.7,2.2-2.4v-0.8h0c-0.4,0.6-1.1,1.1-2.2,1.1c-1.7,0-2.9-1.4-2.9-3.3c0-2.3,1.5-3.6,3.1-3.6
		c1.2,0,1.8,0.6,2.1,1.2h0l0.1-1H169.9z M168.6,173.7c0-0.2,0-0.4-0.1-0.6c-0.2-0.7-0.8-1.3-1.7-1.3c-1.2,0-2,1-2,2.6
		c0,1.3,0.7,2.4,2,2.4c0.8,0,1.4-0.5,1.7-1.3c0.1-0.2,0.1-0.4,0.1-0.7V173.7z"/>
	<path d="M171.8,173.1c0-0.8,0-1.5-0.1-2.1h1.1l0,1.3h0.1c0.3-0.9,1.1-1.5,1.9-1.5c0.1,0,0.2,0,0.4,0v1.2c-0.1,0-0.3,0-0.4,0
		c-0.9,0-1.5,0.7-1.7,1.6c0,0.2-0.1,0.4-0.1,0.6v3.6h-1.2V173.1z"/>
	<path d="M176.9,174.6c0,1.7,1.1,2.4,2.3,2.4c0.9,0,1.4-0.2,1.9-0.4l0.2,0.9c-0.4,0.2-1.2,0.4-2.3,0.4c-2.1,0-3.3-1.4-3.3-3.4
		c0-2,1.2-3.7,3.2-3.7c2.2,0,2.8,1.9,2.8,3.2c0,0.3,0,0.4,0,0.6H176.9z M180.6,173.8c0-0.8-0.3-2-1.7-2c-1.2,0-1.8,1.1-1.9,2H180.6z
		"/>
	<path d="M184,174.6c0,1.7,1.1,2.4,2.3,2.4c0.9,0,1.4-0.2,1.9-0.4l0.2,0.9c-0.4,0.2-1.2,0.4-2.3,0.4c-2.1,0-3.3-1.4-3.3-3.4
		c0-2,1.2-3.7,3.2-3.7c2.2,0,2.8,1.9,2.8,3.2c0,0.3,0,0.4,0,0.6H184z M187.6,173.8c0-0.8-0.3-2-1.7-2c-1.2,0-1.8,1.1-1.9,2H187.6z"
		/>
	<path d="M190.3,172.9c0-0.7,0-1.3-0.1-1.8h1.1l0.1,1.1h0c0.3-0.6,1.1-1.3,2.2-1.3c0.9,0,2.4,0.6,2.4,2.9v4h-1.2v-3.9
		c0-1.1-0.4-2-1.6-2c-0.8,0-1.4,0.6-1.7,1.3c-0.1,0.2-0.1,0.4-0.1,0.6v4.1h-1.2V172.9z"/>
</g>
<g>
	<path d="M124.2,186.1c-1,1.4-1.8,3.2-1.8,5.7c0,2.5,0.8,4.3,1.8,5.7h-1c-0.9-1.2-1.8-3-1.8-5.7c0-2.8,1-4.6,1.8-5.7H124.2z"/>
	<path d="M125.5,190.9c0-0.7,0-1.3-0.1-1.8h1.1l0.1,1.1h0c0.4-0.6,1-1.2,2.1-1.2c0.9,0,1.6,0.6,1.9,1.4h0c0.2-0.4,0.5-0.7,0.8-0.9
		c0.4-0.3,0.9-0.5,1.5-0.5c0.9,0,2.2,0.6,2.2,2.9v4H134V192c0-1.3-0.5-2.1-1.5-2.1c-0.7,0-1.2,0.5-1.5,1.1c-0.1,0.2-0.1,0.4-0.1,0.6
		v4.2h-1.2v-4.1c0-1.1-0.5-1.9-1.4-1.9c-0.8,0-1.3,0.6-1.5,1.2c-0.1,0.2-0.1,0.4-0.1,0.6v4.1h-1.2V190.9z"/>
	<path d="M141,195.9l-0.1-0.9h0c-0.4,0.5-1.1,1-2.1,1c-1.4,0-2.1-1-2.1-1.9c0-1.6,1.5-2.5,4.1-2.5v-0.1c0-0.6-0.2-1.6-1.5-1.6
		c-0.6,0-1.3,0.2-1.8,0.5l-0.3-0.8c0.6-0.4,1.4-0.6,2.2-0.6c2.1,0,2.6,1.4,2.6,2.8v2.5c0,0.6,0,1.2,0.1,1.6H141z M140.8,192.4
		c-1.3,0-2.9,0.2-2.9,1.5c0,0.8,0.5,1.2,1.2,1.2c0.9,0,1.4-0.6,1.6-1.1c0-0.1,0.1-0.3,0.1-0.4V192.4z"/>
	<path d="M149.8,189.1c0,0.5-0.1,1-0.1,1.9v3.9c0,1.6-0.3,2.5-1,3.1c-0.7,0.6-1.6,0.8-2.5,0.8c-0.8,0-1.7-0.2-2.3-0.6l0.3-0.9
		c0.4,0.3,1.1,0.5,2,0.5c1.3,0,2.2-0.7,2.2-2.4v-0.8h0c-0.4,0.6-1.1,1.1-2.2,1.1c-1.7,0-2.9-1.4-2.9-3.3c0-2.3,1.5-3.6,3.1-3.6
		c1.2,0,1.8,0.6,2.1,1.2h0l0.1-1H149.8z M148.5,191.8c0-0.2,0-0.4-0.1-0.6c-0.2-0.7-0.8-1.3-1.7-1.3c-1.2,0-2,1-2,2.6
		c0,1.3,0.7,2.4,2,2.4c0.8,0,1.4-0.5,1.7-1.3c0.1-0.2,0.1-0.4,0.1-0.7V191.8z"/>
	<path d="M152.5,192.7c0,1.7,1.1,2.4,2.3,2.4c0.9,0,1.4-0.2,1.9-0.4l0.2,0.9c-0.4,0.2-1.2,0.4-2.3,0.4c-2.1,0-3.3-1.4-3.3-3.4
		s1.2-3.7,3.2-3.7c2.2,0,2.8,1.9,2.8,3.2c0,0.3,0,0.4,0,0.6H152.5z M156.1,191.8c0-0.8-0.3-2-1.7-2c-1.2,0-1.8,1.1-1.9,2H156.1z"/>
	<path d="M158.8,190.9c0-0.7,0-1.3-0.1-1.8h1.1l0.1,1.1h0c0.3-0.6,1.1-1.3,2.2-1.3c0.9,0,2.4,0.6,2.4,2.9v4h-1.2V192
		c0-1.1-0.4-2-1.6-2c-0.8,0-1.4,0.6-1.7,1.3c-0.1,0.2-0.1,0.4-0.1,0.6v4.1h-1.2V190.9z"/>
	<path d="M168,187.1v1.9h1.8v0.9H168v3.7c0,0.8,0.2,1.3,0.9,1.3c0.3,0,0.6,0,0.7-0.1l0.1,0.9c-0.2,0.1-0.6,0.2-1.1,0.2
		c-0.6,0-1-0.2-1.3-0.5c-0.4-0.4-0.5-1-0.5-1.8V190h-1.1v-0.9h1.1v-1.6L168,187.1z"/>
	<path d="M174.9,195.9l-0.1-0.9h0c-0.4,0.5-1.1,1-2.1,1c-1.4,0-2.1-1-2.1-1.9c0-1.6,1.5-2.5,4.1-2.5v-0.1c0-0.6-0.2-1.6-1.5-1.6
		c-0.6,0-1.3,0.2-1.8,0.5l-0.3-0.8c0.6-0.4,1.4-0.6,2.2-0.6c2.1,0,2.6,1.4,2.6,2.8v2.5c0,0.6,0,1.2,0.1,1.6H174.9z M174.7,192.4
		c-1.3,0-2.9,0.2-2.9,1.5c0,0.8,0.5,1.2,1.2,1.2c0.9,0,1.4-0.6,1.6-1.1c0-0.1,0.1-0.3,0.1-0.4V192.4z"/>
	<path d="M180.8,191.6v0.9h-3.5v-0.9H180.8z"/>
	<path d="M188.2,189.1c0,0.5-0.1,1-0.1,1.9v3.9c0,1.6-0.3,2.5-1,3.1c-0.7,0.6-1.6,0.8-2.5,0.8c-0.8,0-1.7-0.2-2.3-0.6l0.3-0.9
		c0.4,0.3,1.1,0.5,2,0.5c1.3,0,2.2-0.7,2.2-2.4v-0.8h0c-0.4,0.6-1.1,1.1-2.2,1.1c-1.7,0-2.9-1.4-2.9-3.3c0-2.3,1.5-3.6,3.1-3.6
		c1.2,0,1.8,0.6,2.1,1.2h0l0.1-1H188.2z M187,191.8c0-0.2,0-0.4-0.1-0.6c-0.2-0.7-0.8-1.3-1.7-1.3c-1.2,0-2,1-2,2.6
		c0,1.3,0.7,2.4,2,2.4c0.8,0,1.4-0.5,1.7-1.3c0.1-0.2,0.1-0.4,0.1-0.7V191.8z"/>
	<path d="M190.1,191.2c0-0.8,0-1.5-0.1-2.1h1.1l0,1.3h0.1c0.3-0.9,1.1-1.5,1.9-1.5c0.1,0,0.2,0,0.4,0v1.2c-0.1,0-0.3,0-0.4,0
		c-0.9,0-1.5,0.7-1.7,1.6c0,0.2-0.1,0.4-0.1,0.6v3.6h-1.2V191.2z"/>
	<path d="M195.3,192.7c0,1.7,1.1,2.4,2.3,2.4c0.9,0,1.4-0.2,1.9-0.4l0.2,0.9c-0.4,0.2-1.2,0.4-2.3,0.4c-2.1,0-3.3-1.4-3.3-3.4
		s1.2-3.7,3.2-3.7c2.2,0,2.8,1.9,2.8,3.2c0,0.3,0,0.4,0,0.6H195.3z M198.9,191.8c0-0.8-0.3-2-1.7-2c-1.2,0-1.8,1.1-1.9,2H198.9z"/>
	<path d="M202.3,192.7c0,1.7,1.1,2.4,2.3,2.4c0.9,0,1.4-0.2,1.9-0.4l0.2,0.9c-0.4,0.2-1.2,0.4-2.3,0.4c-2.1,0-3.3-1.4-3.3-3.4
		s1.2-3.7,3.2-3.7c2.2,0,2.8,1.9,2.8,3.2c0,0.3,0,0.4,0,0.6H202.3z M205.9,191.8c0-0.8-0.3-2-1.7-2c-1.2,0-1.8,1.1-1.9,2H205.9z"/>
	<path d="M208.6,190.9c0-0.7,0-1.3-0.1-1.8h1.1l0.1,1.1h0c0.3-0.6,1.1-1.3,2.2-1.3c0.9,0,2.4,0.6,2.4,2.9v4h-1.2V192
		c0-1.1-0.4-2-1.6-2c-0.8,0-1.4,0.6-1.7,1.3c-0.1,0.2-0.1,0.4-0.1,0.6v4.1h-1.2V190.9z"/>
	<path d="M215.6,197.6c1-1.4,1.8-3.2,1.8-5.7c0-2.5-0.8-4.3-1.8-5.7h1c0.9,1.1,1.8,2.9,1.8,5.7c0,2.7-0.9,4.5-1.8,5.7H215.6z"/>
</g>
<g>
	<path d="M135.5,298.1l1.5,4c0.2,0.4,0.3,1,0.4,1.4h0c0.1-0.4,0.3-0.9,0.4-1.4l1.3-4h1.3l-1.8,4.8c-0.9,2.3-1.5,3.5-2.3,4.2
		c-0.6,0.5-1.2,0.7-1.5,0.8l-0.3-1c0.3-0.1,0.7-0.3,1.1-0.6c0.3-0.3,0.8-0.7,1-1.4c0.1-0.1,0.1-0.2,0.1-0.3c0-0.1,0-0.2-0.1-0.3
		l-2.5-6.2H135.5z"/>
	<path d="M142.2,301.7c0,1.7,1.1,2.4,2.3,2.4c0.9,0,1.4-0.2,1.9-0.4l0.2,0.9c-0.4,0.2-1.2,0.4-2.3,0.4c-2.1,0-3.3-1.4-3.3-3.4
		c0-2,1.2-3.7,3.2-3.7c2.2,0,2.8,1.9,2.8,3.2c0,0.3,0,0.4,0,0.6H142.2z M145.8,300.8c0-0.8-0.3-2-1.7-2c-1.2,0-1.8,1.1-1.9,2H145.8z
		"/>
	<path d="M148.5,294.9h1.2v9.9h-1.2V294.9z"/>
	<path d="M151.8,294.9h1.2v9.9h-1.2V294.9z"/>
	<path d="M161.3,301.4c0,2.5-1.7,3.6-3.4,3.6c-1.8,0-3.2-1.3-3.2-3.5c0-2.3,1.5-3.6,3.4-3.6C159.9,297.9,161.3,299.3,161.3,301.4z
		 M155.9,301.5c0,1.5,0.9,2.6,2.1,2.6c1.2,0,2.1-1.1,2.1-2.6c0-1.1-0.6-2.6-2-2.6C156.5,298.9,155.9,300.2,155.9,301.5z"/>
	<path d="M163.2,298.1l0.9,3.4c0.2,0.8,0.4,1.5,0.5,2.2h0c0.2-0.7,0.4-1.4,0.6-2.1l1.1-3.5h1l1.1,3.4c0.3,0.8,0.4,1.5,0.6,2.2h0
		c0.1-0.7,0.3-1.4,0.5-2.2l1-3.4h1.2l-2.2,6.8h-1.1l-1-3.2c-0.2-0.8-0.4-1.4-0.6-2.2h0c-0.2,0.8-0.4,1.5-0.6,2.2l-1.1,3.2H164
		l-2-6.8H163.2z"/>
	<path d="M175.8,300.6v0.9h-3.5v-0.9H175.8z"/>
	<path d="M177.2,304.9c0-0.5,0.1-1.1,0.1-1.8v-8.2h1.2v4.3h0c0.4-0.8,1.2-1.2,2.3-1.2c1.7,0,2.9,1.4,2.9,3.5c0,2.4-1.5,3.6-3,3.6
		c-1,0-1.8-0.4-2.3-1.3h0l-0.1,1.1H177.2z M178.5,302.1c0,0.2,0,0.3,0.1,0.4c0.2,0.9,1,1.4,1.8,1.4c1.3,0,2.1-1,2.1-2.6
		c0-1.4-0.7-2.5-2-2.5c-0.8,0-1.6,0.6-1.9,1.5c0,0.1-0.1,0.3-0.1,0.5V302.1z"/>
	<path d="M185.2,294.9h1.2v9.9h-1.2V294.9z"/>
	<path d="M194.2,303c0,0.7,0,1.3,0.1,1.8h-1.1l-0.1-1.1h0c-0.3,0.5-1,1.3-2.2,1.3c-1.1,0-2.3-0.6-2.3-3v-4h1.2v3.8
		c0,1.3,0.4,2.2,1.5,2.2c0.8,0,1.4-0.6,1.6-1.1c0.1-0.2,0.1-0.4,0.1-0.6v-4.2h1.2V303z"/>
	<path d="M196.9,301.7c0,1.7,1.1,2.4,2.3,2.4c0.9,0,1.4-0.2,1.9-0.4l0.2,0.9c-0.4,0.2-1.2,0.4-2.3,0.4c-2.1,0-3.3-1.4-3.3-3.4
		c0-2,1.2-3.7,3.2-3.7c2.2,0,2.8,1.9,2.8,3.2c0,0.3,0,0.4,0,0.6H196.9z M200.5,300.8c0-0.8-0.3-2-1.7-2c-1.2,0-1.8,1.1-1.9,2H200.5z
		"/>
</g>
<g>
</g>
<g>
</g>
<g>
</g>
<g>
</g>
<g>
</g>
<g>
</g>
<g>
</g>
</svg>
